<mxfile host="65bd71144e">
    <diagram id="dOmM90m08pkTwU8lHr22" name="ページ1">
        <mxGraphModel dx="1133" dy="2339" grid="1" gridSize="10" guides="1" tooltips="1" connect="1" arrows="1" fold="1" page="1" pageScale="1" pageWidth="827" pageHeight="1169" math="0" shadow="0">
            <root>
                <mxCell id="0"/>
                <mxCell id="1" parent="0"/>
                <mxCell id="3" value="One_student_compile" style="swimlane;whiteSpace=wrap;html=1;startSize=50;" vertex="1" parent="1">
                    <mxGeometry x="120" y="370" width="260" height="270" as="geometry"/>
                </mxCell>
                <mxCell id="4" value="入力：Cソースファイル&lt;br&gt;出力：コンパイル後の実行ファイルもしくは，エラー文&lt;br&gt;&lt;br&gt;gcc -O2 -Wall (Cソースファイル名).c -o (Cソースファイル名)&lt;br&gt;を実行して，実行後の出力結果を受け取る．&lt;br&gt;内部にErrorがあれば，それを出力する.&lt;br&gt;&lt;br&gt;エラーの場合，戻り値として，state = -1を返し，正常の場合，state = 0を返す．" style="whiteSpace=wrap;html=1;align=left;" vertex="1" parent="3">
                    <mxGeometry y="50" width="260" height="220" as="geometry"/>
                </mxCell>
                <mxCell id="5" value="Output_error_statement" style="swimlane;whiteSpace=wrap;html=1;startSize=50;" vertex="1" parent="1">
                    <mxGeometry x="450" y="50" width="260" height="270" as="geometry"/>
                </mxCell>
                <mxCell id="6" value="入力：エラー文&lt;br&gt;出力：エラー文を標準出力に出力&lt;br&gt;&lt;br&gt;One_students_compileから得られたエラー分を&lt;br&gt;出力する．" style="whiteSpace=wrap;html=1;align=left;" vertex="1" parent="5">
                    <mxGeometry y="50" width="260" height="220" as="geometry"/>
                </mxCell>
                <mxCell id="7" value="One_student_exec" style="swimlane;whiteSpace=wrap;html=1;startSize=50;" vertex="1" parent="1">
                    <mxGeometry x="780" y="370" width="260" height="270" as="geometry"/>
                </mxCell>
                <mxCell id="8" value="入力：実行ファイル名，課題番号，入力ファイル&lt;br&gt;出力：生徒の出力ファイル&lt;br&gt;&lt;br&gt;One_student_compileでコンパイルされた実行ファイルを実行する．入力ファイルの必要の是非は，課題番号から判定する．" style="whiteSpace=wrap;html=1;align=left;" vertex="1" parent="7">
                    <mxGeometry y="50" width="260" height="220" as="geometry"/>
                </mxCell>
                <mxCell id="9" value="Compare_output_file" style="swimlane;whiteSpace=wrap;html=1;startSize=50;" vertex="1" parent="1">
                    <mxGeometry x="1111" y="370" width="260" height="270" as="geometry"/>
                </mxCell>
                <mxCell id="10" value="入力：課題番号，生徒の出力ファイル&lt;br&gt;出力：”Correct”or”Incorrect”&lt;br&gt;&lt;br&gt;生徒の出力ファイルと正解プログラムの出力ファイルを比較する．" style="whiteSpace=wrap;html=1;align=left;" vertex="1" parent="9">
                    <mxGeometry y="50" width="260" height="220" as="geometry"/>
                </mxCell>
                <mxCell id="12" value="Vertical Container" style="swimlane;whiteSpace=wrap;html=1;" vertex="1" parent="1">
                    <mxGeometry x="80" y="-20" width="1350" height="730" as="geometry"/>
                </mxCell>
                <mxCell id="13" value="state == 0" style="rhombus;whiteSpace=wrap;html=1;" vertex="1" parent="12">
                    <mxGeometry x="375" y="435" width="250" height="230" as="geometry"/>
                </mxCell>
                <mxCell id="14" style="edgeStyle=none;html=1;" edge="1" parent="1" source="4" target="13">
                    <mxGeometry relative="1" as="geometry"/>
                </mxCell>
                <mxCell id="15" style="edgeStyle=none;html=1;entryX=0;entryY=0.5;entryDx=0;entryDy=0;" edge="1" parent="1" source="13" target="8">
                    <mxGeometry relative="1" as="geometry"/>
                </mxCell>
                <mxCell id="19" value="Yes" style="edgeLabel;html=1;align=center;verticalAlign=middle;resizable=0;points=[];" vertex="1" connectable="0" parent="15">
                    <mxGeometry x="-0.2422" y="2" relative="1" as="geometry">
                        <mxPoint x="7" y="2" as="offset"/>
                    </mxGeometry>
                </mxCell>
                <mxCell id="16" style="edgeStyle=none;html=1;entryX=0.5;entryY=1;entryDx=0;entryDy=0;" edge="1" parent="1" source="13" target="5">
                    <mxGeometry relative="1" as="geometry"/>
                </mxCell>
                <mxCell id="20" value="No" style="edgeLabel;html=1;align=center;verticalAlign=middle;resizable=0;points=[];" vertex="1" connectable="0" parent="16">
                    <mxGeometry x="-0.0474" relative="1" as="geometry">
                        <mxPoint as="offset"/>
                    </mxGeometry>
                </mxCell>
                <mxCell id="21" style="edgeStyle=none;html=1;entryX=0;entryY=0.5;entryDx=0;entryDy=0;" edge="1" parent="1" source="8" target="10">
                    <mxGeometry relative="1" as="geometry"/>
                </mxCell>
            </root>
        </mxGraphModel>
    </diagram>
</mxfile>